<?xml version="1.0" encoding="UTF-8"?>
<svg id="Layer_1" data-name="Layer 1" xmlns="http://www.w3.org/2000/svg" viewBox="0 0 300 200">
  <defs>
    <style>
      .cls-1 {
        fill: #0e1f42;
        stroke-width: 0px;
      }
    </style>
  </defs>
  <polygon class="cls-1" points="40.14 97.97 40.14 122.82 56.48 122.82 56.48 119.63 43.77 119.63 43.77 112.17 53.71 112.17 53.71 108.98 43.77 108.98 43.77 101.16 56.48 101.16 56.48 97.97 40.14 97.97"/>
  <polygon class="cls-1" points="65.71 97.97 65.71 122.82 78.84 122.82 78.84 119.63 69.36 119.63 69.36 97.97 65.71 97.97"/>
  <polygon class="cls-1" points="88.07 97.97 88.07 122.82 101.21 122.82 101.21 119.63 91.73 119.63 91.73 97.97 88.07 97.97"/>
  <rect class="cls-1" x="110.44" y="97.97" width="3.65" height="24.85"/>
  <path class="cls-1" d="m166.39,97.62c-9.48,0-12.28,7.56-12.28,12.74s2.8,12.79,12.28,12.79c3.97,0,6.78-1.35,8.9-3.49v-8.9h-8.87v3.19h5.21v4.3c-1.54,1.08-3.37,1.63-5.25,1.6-7.49,0-8.6-7.1-8.6-9.48s1.1-9.51,8.6-9.51c2.38.02,4.65.96,6.35,2.63l2.27-2.34c-2.13-2.35-4.44-3.51-8.63-3.51"/>
  <polygon class="cls-1" points="182.22 97.97 182.22 101.16 189.43 101.16 189.43 122.82 193.09 122.82 193.09 101.16 200.37 101.16 200.37 97.97 182.22 97.97"/>
  <path class="cls-1" d="m218.16,97.62c-9.48,0-12.28,7.56-12.28,12.74s2.8,12.79,12.28,12.79,12.28-7.46,12.28-12.79-2.81-12.74-12.28-12.74m0,22.29c-7.49,0-8.6-7.17-8.6-9.55s1.1-9.51,8.6-9.51,8.55,7.14,8.55,9.51-1.05,9.55-8.55,9.55"/>
  <path class="cls-1" d="m144.48,123.02l.4-.19v-24.85h-3.68v16.52l-18.28-18.28v4.39c-.04.56.18,1.12.6,1.49l1.22,1.22v19.53h3.66v-15.9l16.09,16.08Z"/>
  <path class="cls-1" d="m96.67,75.2l17.42-17.42v3.03c.04.48-.15.95-.53,1.26l-6.22,6.22,6.22,6.22c.37.31.57.78.53,1.26v3.03l-1.71-1.71-5.04,5.04,6.22,6.22c.37.31.57.78.53,1.25v3.03l-17.42-17.42Zm3.76,0l5.04,5.04,5.04-5.04-5.04-5.04-5.04,5.04Z"/>
  <polygon class="cls-1" points="259.4 123.02 259.8 122.83 259.8 97.97 256.14 97.97 256.14 114.49 240.03 98.38 239.67 98.55 239.67 122.83 243.33 122.83 243.33 106.94 259.4 123.02"/>
  <path class="cls-1" d="m129.24,133.85c-.28-.18-.6-.3-.92-.37-.31-.07-.62-.1-.94-.1h-2.56v8.6h1.14v-3.91h1.6c.33,0,.66-.04.98-.14.31-.08.6-.23.85-.42.25-.2.46-.45.6-.73.16-.33.23-.69.22-1.05.01-.4-.08-.8-.27-1.16-.17-.3-.41-.55-.7-.73m-.16,1.89c0,.21-.04.41-.13.6-.08.15-.2.29-.34.39-.15.1-.31.18-.49.21-.2.05-.4.07-.6.07h-1.56v-2.57h1.52c.2,0,.41.03.61.08.19.04.36.12.52.23.15.11.27.25.36.41.09.18.14.38.13.59"/>
  <path class="cls-1" d="m143.15,137.86c.27-.08.52-.21.74-.39.23-.18.43-.41.56-.68.16-.33.24-.7.22-1.07,0-.34-.06-.67-.19-.98-.12-.26-.28-.49-.49-.68-.2-.17-.42-.31-.66-.41-.23-.08-.46-.15-.7-.2-.21-.04-.42-.06-.63-.07h-2.76v8.58h1.14v-3.91h1.14l2.32,3.91h1.25l-2.44-4.01c.16-.03.33-.07.49-.12m.32-1.72c-.04.15-.13.29-.24.41-.15.15-.33.26-.53.33-.29.1-.61.15-.92.14h-1.46v-2.57h1.46c.31-.01.62.03.92.14.2.07.38.19.53.33.11.11.19.25.24.41.09.27.09.56,0,.83"/>
  <path class="cls-1" d="m160.97,134.45c-.4-.41-.88-.73-1.41-.94-1.16-.46-2.45-.46-3.6,0-.53.22-1.01.54-1.41.94-.39.41-.7.9-.91,1.43-.44,1.16-.44,2.45,0,3.61.21.53.52,1.02.91,1.44.4.41.88.73,1.41.94,1.16.44,2.44.44,3.6,0,.53-.21,1.01-.53,1.41-.94.4-.41.71-.9.91-1.44.22-.58.33-1.19.33-1.81,0-.62-.11-1.23-.33-1.81-.21-.53-.52-1.02-.91-1.43m-3.21-.22c.47,0,.94.08,1.38.26.39.17.75.41,1.04.73.29.32.52.69.66,1.09.31.89.31,1.85,0,2.74-.14.41-.37.78-.66,1.09-.29.31-.65.56-1.04.73-.89.35-1.87.35-2.76,0-.39-.17-.75-.42-1.04-.73-.29-.32-.51-.69-.66-1.09-.31-.89-.31-1.85,0-2.74.14-.4.37-.78.66-1.09.29-.31.65-.56,1.04-.73.44-.18.91-.27,1.38-.26"/>
  <path class="cls-1" d="m175.72,133.85c-.28-.18-.6-.3-.93-.37-.31-.07-.62-.1-.94-.1h-2.56v8.6h1.16v-3.91h1.6c.33,0,.66-.04.98-.14.31-.08.6-.23.85-.42.25-.2.46-.45.6-.73.15-.33.23-.69.22-1.05.01-.4-.08-.8-.27-1.16-.17-.3-.41-.55-.7-.73m-.16,1.89c0,.21-.04.41-.13.6-.08.15-.2.29-.34.39-.15.1-.31.18-.49.21-.2.05-.4.07-.6.07h-1.56v-2.57h1.52c.21,0,.41.03.61.08.18.05.36.12.51.23.15.11.27.25.36.41.09.18.14.38.13.59"/>
  <polygon class="cls-1" points="186.83 138.08 190.84 138.08 190.84 137.02 186.83 137.02 186.83 134.44 191.11 134.44 191.11 133.38 185.7 133.38 185.7 142 191.29 142 191.29 140.93 186.83 140.93 186.83 138.08"/>
  <path class="cls-1" d="m204.27,137.86c.27-.08.52-.21.74-.39.23-.18.43-.41.56-.68.16-.33.24-.7.22-1.07,0-.34-.06-.67-.19-.98-.12-.25-.28-.48-.49-.67-.2-.18-.42-.31-.67-.41-.43-.15-.87-.24-1.32-.26h-2.8v8.57h1.13v-3.91h1.15l2.32,3.91h1.3l-2.44-4.01c.16-.03.33-.08.49-.13m.33-1.72c-.05.15-.13.29-.24.41-.15.15-.33.26-.52.33-.3.1-.61.15-.92.14h-1.46v-2.57h1.46c.31,0,.62.04.92.14.19.07.37.19.52.33.11.11.2.25.24.4.04.13.06.27.07.41,0,.14-.03.28-.07.41"/>
  <polygon class="cls-1" points="213.96 134.44 216.78 134.44 216.78 142 217.92 142 217.92 134.44 220.74 134.44 220.74 133.38 213.96 133.38 213.96 134.44"/>
  <rect class="cls-1" x="229.36" y="133.38" width="1.13" height="8.62"/>
  <polygon class="cls-1" points="241.24 138.08 245.25 138.08 245.25 137.02 241.24 137.02 241.24 134.44 245.52 134.44 245.52 133.38 240.1 133.38 240.1 142 245.7 142 245.7 140.93 241.24 140.93 241.24 138.08"/>
  <path class="cls-1" d="m259.48,138.39c-.22-.31-.51-.56-.85-.74-.34-.18-.69-.31-1.06-.41-.34-.09-.68-.2-1.01-.33-.27-.11-.52-.27-.72-.49-.19-.23-.29-.53-.27-.83,0-.21.04-.42.13-.61.08-.17.2-.31.35-.42.16-.12.34-.21.53-.26.49-.15,1.03-.12,1.5.09.25.14.46.33.62.56l.11.15.98-.69-.11-.15c-.27-.38-.64-.68-1.07-.86-.76-.3-1.6-.33-2.38-.1-.33.1-.63.25-.9.46-.26.21-.48.47-.63.77-.16.34-.24.71-.23,1.08,0,.36.06.72.2,1.05.12.28.3.52.53.72.22.19.47.35.73.46.25.11.52.21.8.3s.53.17.78.25c.23.08.44.17.65.29.17.1.32.24.42.4.11.19.16.4.15.62,0,.2-.04.4-.13.59-.08.17-.2.33-.35.45-.16.13-.34.23-.53.29-.21.07-.44.11-.66.11-.35,0-.7-.07-1.02-.23-.3-.16-.55-.41-.71-.71l-.1-.17-1.05.7.11.15c.31.45.75.81,1.25,1.03.5.2,1.03.3,1.57.3.35,0,.69-.05,1.03-.16.32-.1.62-.27.88-.49.26-.22.46-.49.61-.79.16-.33.23-.7.23-1.07.02-.46-.1-.92-.35-1.31"/>
</svg>