<?xml version="1.0" encoding="UTF-8"?>
<svg id="Layer_1" data-name="Layer 1" xmlns="http://www.w3.org/2000/svg" viewBox="0 0 300 200">
  <defs>
    <style>
      .cls-1 {
        fill: #020202;
        stroke-width: 0px;
      }
    </style>
  </defs>
  <path class="cls-1" d="m260,85.72h-23.91v4.71c2.85-.6,6.19-.65,9.85-.65,0,8.13-.04,21.64-.65,24.49h5.53c-.6-2.85-.65-16.34-.65-24.49,3.66,0,6.99.04,9.85.65v-4.71h-.01Z"/>
  <path class="cls-1" d="m204.97,114.28h5.9c.41-2.89,5.57-13.63,8.54-19.73,3.01,6.1,8.3,16.84,8.7,19.73h6.31c-1.96-2.85-8.87-16.63-14.73-29.04-5.85,12.41-12.43,26.19-14.71,29.04Z"/>
  <path class="cls-1" d="m187.89,107.56c0,2.44-.04,4.84-.45,6.7h5.45c-.41-1.87-.45-4.26-.45-6.7v-3.87c4.55-7.92,9.07-15.12,11.46-17.98h-5.9c-.65,2.89-4.88,9.76-7.53,13.95-2.73-4.19-7.08-11.07-7.77-13.95h-6.31c2.36,2.85,6.91,10.04,11.46,17.98v3.87h.01Z"/>
  <path class="cls-1" d="m167.23,114.28c-.6-2.85-.65-9.47-.65-14.23s.04-11.46.65-14.32h-5.48c.6,2.85.65,9.56.65,14.32s-.04,11.39-.65,14.23h5.48Z"/>
  <path class="cls-1" d="m128.68,114.28c-.57-2.68-.65-13.58-.65-21.1,5.98,7.08,11.84,13.9,16.27,21.1h4.84c-.6-3.13-.69-9.47-.69-14.28s.08-11.43.69-14.28h-5.48c.57,2.68.65,13.58.65,21.1-5.98-7.12-11.84-14.07-16.27-21.1h-4.84c.6,2.85.65,9.52.65,14.28s-.04,11.43-.65,14.28h5.48Z"/>
  <path class="cls-1" d="m54.67,114.76c8.5,0,14.92-6.39,14.92-14.88s-6.26-14.64-14.68-14.64c-8.49,0-14.92,6.39-14.92,14.88s6.26,14.64,14.68,14.64Zm-.28-25.86c6.55,0,10.5,5.29,10.5,11.59s-3.87,10.62-9.68,10.62c-6.55,0-10.5-5.29-10.5-11.59-.01-6.39,3.85-10.62,9.68-10.62Z"/>
  <path class="cls-1" d="m104.93,85.72c-.86,2.65-5.62,10.81-9.11,16.47-3.62-5.65-8.5-13.83-9.4-16.47h-5.65c.6,2.85.65,9.52.65,14.28s-.04,11.43-.65,14.28h5.48c-.57-2.73-.65-14.8-.65-20.98,3.54,5.41,6.96,11.1,9.31,15.33h1.51c2.28-4.26,5.77-9.97,9.31-15.41,0,6.14-.08,18.3-.65,21.07h5.48c-.6-2.85-.65-9.52-.65-14.28s.04-11.43.65-14.28c0,0-5.64,0-5.64,0Z"/>
</svg>