<?xml version="1.0" encoding="UTF-8"?>
<svg id="Layer_1" data-name="Layer 1" xmlns="http://www.w3.org/2000/svg" viewBox="0 0 300 200">
  <defs>
    <style>
      .cls-1 {
        fill: #1d1d1b;
        stroke-width: 0px;
      }
    </style>
  </defs>
  <g id="g4296">
    <g id="g3309">
      <path id="path3311" class="cls-1" d="m82.4,99.86c1.76-4.24,1.61-7.53-.45-9.88-2.06-2.34-5.94-3.52-11.65-3.52h-19.32l-1.74,4.24h13.3c6.79,0,8.75,3.41,6.41,9.05-1.35,3.26-2.54,6.26-5.37,7.59-2.59,1.23-5.26,1.58-10,1.58h-6.16s4.6-11,4.6-11h-5.8l-6.53,15.64h17.51c4.91,0,8.79-.45,11.64-1.37,3.13-1.01,5.94-2.67,8.42-4.99,2.31-2.2,4.02-4.66,5.14-7.35"/>
    </g>
    <g id="g3313">
      <path id="path3315" class="cls-1" d="m192.4,102.72l11.77-11.53,2.44,11.53h-14.21Zm-100.03.04l11.46-11.03,2.07,11.03s-13.52,0-13.52,0Zm110.78-16.33v.03s-7.17,0-7.17,0l-27.56,25.98,10.78-25.97h-11.82l-14.27,11.26-7.35,6.08h-.34l3.46-8.85-4.22-8.49h-11.87l-10.79,26.02-6.21-26.02h-13.01l-28.73,27.11h7.17l7.35-7.09h18.1l1.44,7.09h19.23l6.96-16.76c.35-.84.68-1.81,1.01-2.9.04.88.27,1.81.7,2.79l6.11,13.98h1.04l17.5-13.93c.65-.52,1.64-1.46,2.97-2.84-.67,1.27-1.15,2.23-1.43,2.9l-6.95,16.76h12.7s13.39-.01,13.39-.01l7.26-7.12h18.8l1.51,7.12h6.61l-6.44-27.14h-5.92"/>
    </g>
    <g id="g3317">
      <path id="path3319" class="cls-1" d="m260.23,86.46h-19.32c-5.71,0-10.56,1.18-14.57,3.52-4.01,2.35-6.88,5.65-8.65,9.88-1.12,2.69-1.44,5.15-.96,7.35.56,2.32,1.99,3.99,4.27,4.99,2.1.92,5.61,1.37,10.51,1.37h17.47l1.74-4.3h-9.83c-4.75,0-7.9-.62-9.47-1.85-1.72-1.32-1.53-4.4-.19-7.67,2.34-5.64,7.25-9.16,14.04-9.16h7.62l-1.75,4.24h5.8l3.37-8.14h-.17l.09-.24"/>
    </g>
  </g>
</svg>