<?xml version="1.0" encoding="UTF-8"?>
<svg id="Layer_1" data-name="Layer 1" xmlns="http://www.w3.org/2000/svg" viewBox="0 0 300 200">
  <defs>
    <style>
      .cls-1 {
        fill: #005191;
        stroke-width: 0px;
      }
    </style>
  </defs>
  <path class="cls-1" d="m107.46,153.12l3.3-8.53,3.27,8.53h-6.57Zm5.94-12.01c-.24-.59-.6-1.05-1.09-1.3-.45-.22-.94-.33-1.44-.32-.7,0-1.39.14-1.91.32-.12.05-.22.15-.27.27l-8.6,21.47c-.1.24.02.52.26.62.06.02.12.04.18.04h3.14c.2,0,.37-.12.44-.3l2.18-5.52h8.92l2.25,5.53c.07.18.24.29.44.3h3.22c.16,0,.31-.08.4-.21.09-.13.1-.29.04-.44l-8.17-20.44Zm87.51,17.71h-8.51v-6.68h7.55c.13,0,.25-.05.34-.14.09-.09.14-.22.14-.34v-2.49c0-.13-.05-.25-.14-.34-.09-.09-.21-.14-.34-.14h-7.55v-5.71h8.02c.89,0,1.59-.16,2.04-.65.39-.43.61-.99.59-1.58v-.34c0-.55-.26-.82-.54-.82h-13.67c-.12,0-.24.05-.33.14-.09.09-.14.21-.14.34v21.67c0,.13.05.24.14.34.09.09.21.13.33.13h14.24c.12,0,.24-.05.33-.13.09-.09.14-.21.14-.34v-.68c.03-.59-.2-1.17-.62-1.59-.48-.47-1.17-.64-2.01-.64m-19.14,0h-8.51v-6.68h7.56c.13,0,.25-.05.33-.14.09-.09.15-.21.14-.34v-2.49c0-.13-.05-.26-.14-.34-.09-.09-.21-.14-.33-.14h-7.56v-5.71h8.01c.89,0,1.58-.16,2.05-.65.4-.43.61-.99.59-1.58v-.34c0-.54-.26-.82-.55-.82h-13.66c-.13,0-.24.05-.34.14-.09.09-.14.21-.14.34v21.67c0,.13.05.25.14.34.09.09.21.13.34.13h14.24c.12,0,.24-.05.33-.13.09-.09.14-.21.15-.34v-.68c.01-.59-.21-1.17-.63-1.59-.48-.47-1.16-.64-2-.64m-85.75-18.88c-.25-.17-.52-.3-.82-.36-.26-.06-.52-.09-.79-.09-.79,0-1.33.02-1.33.58v15.84l-10.6-15.15c-.25-.4-.58-.73-.99-.97-.41-.22-.89-.3-1.45-.3-.76,0-1.33.13-1.52.18-.2.06-.34.25-.33.46v21.59c0,.13.05.24.13.34.09.09.21.14.34.13h2.87c.12,0,.24-.05.33-.13.08-.09.13-.22.14-.34v-15.33l11.17,15.61c.09.12.24.19.39.19h2.87c.13,0,.25-.05.34-.13.08-.1.13-.22.14-.34v-19.72c0-.48-.07-.9-.25-1.27-.14-.32-.36-.59-.64-.8m46.61,21.34l-9.55-11.19,8.85-9.05c.1-.1.15-.24.13-.39-.01-.15-.09-.28-.22-.36-.46-.24-.94-.44-1.44-.61-.28-.09-.57-.14-.86-.14-.42,0-.83.09-1.19.28-.36.18-.72.47-1.13.85l-8.29,8.48v-7.14c0-.51-.08-.96-.26-1.34-.15-.33-.39-.62-.69-.84-.26-.18-.55-.32-.86-.39-.27-.06-.55-.09-.82-.09-.84,0-1.4.03-1.4.62v21.76c0,.26.2.47.46.48,0,0,.02,0,.02,0h3.07c.13,0,.25-.05.34-.13.09-.09.14-.22.14-.34v-10.47l8.41,9.84c.38.45.81.79,1.26,1.02.48.23,1.05.34,1.72.34.83,0,1.8-.3,2.11-.42.15-.05.26-.18.29-.34.04-.15,0-.31-.1-.43m22.31-19.26c0-.51-.08-.96-.26-1.34-.15-.33-.39-.62-.68-.84-.26-.18-.56-.31-.87-.39-.27-.06-.55-.09-.82-.09-.84,0-1.4.03-1.4.62v8.77h-10.31v-6.72c0-.51-.07-.96-.25-1.34-.15-.33-.39-.62-.68-.84-.26-.18-.56-.32-.87-.39-.27-.06-.54-.09-.82-.09-.84,0-1.4.03-1.4.62v21.76c0,.13.05.24.14.34.09.08.2.13.33.13h3.09c.12,0,.24-.05.33-.13.09-.09.14-.21.14-.34v-9.56h10.31v9.56c0,.13.05.24.13.34.09.09.22.13.34.13h3.08c.12,0,.24-.05.33-.13.09-.09.15-.21.15-.34v-19.71Zm56.27,17.4c-.48-.46-1.16-.64-1.98-.64h-7.73v-16.79c0-.51-.07-.96-.26-1.34-.15-.34-.39-.63-.69-.85-.26-.18-.55-.32-.86-.39-.27-.06-.55-.09-.83-.1-.84,0-1.4.02-1.4.62v21.78c0,.13.06.26.14.34.09.09.21.13.34.13h13.38c.13,0,.25-.05.34-.13.08-.09.13-.22.14-.34v-.75c.02-.58-.19-1.14-.59-1.56m-74.35-67.69s0,.01.02.01c.01,0,.01,0,.02-.01m16.03-26.45c-5.55-1.61-6.6,2.04-7.37,4.7,0,0,0,0,0,.01,0,0,0,0,.01,0,6.42,0,2.7-4.64,7.35-4.69h0s0,0,0-.01c0,0,0-.01,0-.01m-8.84-17.32s-.01-.01-.02,0c0,0-.01.01,0,.02h0c3.96,9.63-10.15,13.5-18.97,17.3h0c-12.13,4.57-21.75,15.74-22.57,29.2-.28,7.79,2.11,15.44,6.78,21.68,0,0,.01,0,.02,0s.01-.02,0-.03c-3.49-5.4-5.24-11.74-5-18.16.5-14.4,8.89-24.22,25.69-30.16,11.85-4.19,17.41-6.56,17.61-12.04.11-3.18-3.01-7.16-3.53-7.8m2.84,66.38h0s-.02-.01-.02,0h0c-2.51,4.08-8.83,5.29-13.19,2.52h-.02s0,.02,0,.02c3.83,8.12,13.88,3.11,13.25-2.53"/>
  <path class="cls-1" d="m147.76,41.15s-.01,0-.02,0c0,0,0,.01,0,.02,0,0,0,0,0,0,7.22,8.85-12.74,19.75-19.17,24.93,0,0,0,.02,0,.02,0,.01.02.01.03.01.8-.35,7.23-3.78,13.12-6.31,3.3-1.4,10.31-5.07,10.39-10.87.52-3.88-3.59-7.22-4.34-7.8"/>
  <path class="cls-1" d="m141.57,37.53s-.01,0-.01,0c0,0,0,0,0,.02,6.04,8.46-4.17,17.93-5.91,19.49,0,0-.02.02,0,.03,0,.01.02.01.03,0,.84-.58,1.66-1.17,2.46-1.75,11.09-8.08,9.48-15.12,3.44-17.8m30.24,40.47c-5.54-1.61-6.6,2.04-7.36,4.7h0s0,.02.01.02c6.42,0,2.7-4.63,7.35-4.7h0s.01,0,.01,0c0,0,0-.02-.01-.02"/>
  <path class="cls-1" d="m178.46,108.65s-.02,0-.02,0c-6.32,9.92-17.88,16.78-32.53,15.64-12.97-.99-24.51-11.81-24.21-25.44.21-9.73,3.96-14.26,6.46-16.31-1.23,2.4-6.39,15.43,2.35,24.87,6.08,6.56,16.1,5.93,20.91,2.34h0c2.22.75,4.46,1.21,7.05,1.3,10.28.35,18.65-5.47,18.92-13,.3-8.68-8.32-14.49-18.68-14.85-1.81-.07-3.63.06-5.42.37,3.61-8.12,11.12-8.76,13.32-8.6,7.52.54,10.71,5.45,11.64,7.27h0s.01.02.02.02c.01,0,.01-.02.01-.03-2.31-5.79-8.03-10-14.85-10.24-9.1-.31-16.73,6.55-17.03,15.33-.06,1.53.12,3.01.48,4.41,0,.01,0,.01.01.02.01,0,.02,0,.02-.01.25-.38.51-.74.8-1.09,2.36-2.75,6.28-4.34,10.66-4.19,6.96.24,12.87,4.99,12.66,10.85-.2,5.86-6.44,10.41-13.4,10.16-8.52-.3-16.3-8.38-16.01-16.71.07-2,.5-3.97,1.25-5.82,0,0,0-.01,0-.02,0,0-.01,0-.02,0-2.55,2.57-4.11,5.77-4.23,9.28-.18,5.05,3.58,11.13,9.71,14.25-5.24,2.22-18.63-2.21-18.14-16.28.35-9.98,6.41-19.4,14.86-21.34,0,0,.01-.01.01-.02s-.01-.02-.02-.01c-17.48,2.97-27.71,14.02-28.24,29-.55,15.76,12.68,29.53,28.74,30.1,19.72.68,29.62-12.76,32.91-21.24h0s0-.02-.01-.03"/>
</svg>