<?xml version="1.0" encoding="UTF-8"?>
<svg id="Layer_1" data-name="Layer 1" xmlns="http://www.w3.org/2000/svg" viewBox="0 0 300 200">
  <defs>
    <style>
      .cls-1 {
        fill: #d83127;
      }

      .cls-1, .cls-2, .cls-3 {
        stroke-width: 0px;
      }

      .cls-2 {
        fill: #131922;
      }

      .cls-3 {
        fill: #2f3436;
      }
    </style>
  </defs>
  <path class="cls-3" d="m61.7,140.55c-1.93,0-3.86.14-5.77.44v20.77h4.77v-6.91c.71.07,1.37.1,2.11.1,5.17,0,8.5-2.86,8.5-7.35,0-4.72-3.57-7.06-9.61-7.06Zm.2,12.01c-.4,0-.8-.03-1.2-.1v-9.54c.33-.05.67-.07,1-.07,3.47,0,4.84,1.91,4.84,4.77s-1.36,4.93-4.64,4.93Zm29.21-5.47c0-4.14-2.94-6.55-9.54-6.55-1.92.01-3.83.16-5.73.44v20.77h4.77v-8.04c.63.07,1.27.11,1.91.1h.06l4.6,7.94h5.2l-5.51-8.78c2.5-.88,4.19-3.23,4.24-5.89Zm-9.54,4.3c-.34-.01-.67-.06-1-.13v-8.37c.4-.06.8-.08,1.2-.07,3.1,0,4.6,1.56,4.6,4.1-.03,2.33-1.53,4.47-4.8,4.47Zm24.81-11.05c-6.24,0-10.81,4.54-10.81,11.21,0,7.11,4.2,10.72,10.5,10.72s10.76-4.54,10.76-11.21c0-7.11-4.23-10.72-10.5-10.72h.05Zm-.24,19.36c-3.57,0-5.51-3.82-5.51-8.44s2.23-8.34,5.64-8.34c3.61,0,5.51,3.82,5.51,8.43s-2.28,8.35-5.69,8.35h.05Zm21.95-19.16c-1.92,0-3.83.14-5.73.44v20.77h4.77v-6.91c.7.07,1.36.1,2.1.1,5.17,0,8.51-2.86,8.51-7.35-.13-4.72-3.74-7.06-9.74-7.06h.09Zm.2,12.01c-.4,0-.8-.03-1.2-.1v-9.54c.32-.05.63-.07.95-.07,3.47,0,4.84,1.91,4.84,4.77s-1.4,4.93-4.68,4.93h.09Zm18.63,6.55v-6.61h.45c1.97,0,4.04,0,6.07.13v-2.86c-2.03.1-4.1.12-6.07.12h-.57v-6.4h2.18c2.04-.03,4.08.06,6.11.27v-2.86h-12.98v20.87h13.18v-2.97c-2.03.24-4.07.35-6.11.33l-2.25-.02Zm28.97-12.01c0-4.14-2.94-6.55-9.54-6.55-1.92.01-3.83.16-5.73.44v20.77h4.77v-8.04c.63.07,1.27.11,1.91.1h.07l4.65,7.94h5.2l-5.51-8.78c2.45-.93,4.07-3.27,4.09-5.89h.09Zm-9.54,4.3c-.35,0-.69-.04-1.03-.1v-8.37c.39-.06.79-.08,1.19-.07,3.11,0,4.61,1.56,4.61,4.1-.09,2.3-1.58,4.44-4.86,4.44h.09Zm13.1-7.63c1.72-.2,3.44-.3,5.17-.3h.76v18.29h4.77v-18.3h.73c1.74,0,3.48.09,5.21.3v-2.86h-16.73l.09,2.87Zm20.99,17.99h4.77v-20.87h-4.77v20.87Zm16.16-2.63v-6.61h.57c1.97,0,4.04,0,6.07.13v-2.86c-2.03.1-4.1.12-6.07.12h-.57v-6.4h2.17c2.04-.03,4.08.06,6.11.27v-2.86h-13.11v20.86h13.18v-2.97c-2.03.24-4.07.35-6.11.33h-2.23Zm23.64-9.22l-3.14-1.59c-1.91-.95-2.86-1.64-2.86-3.04s1.37-2.3,3.24-2.3c1.8,0,3.55.53,5.04,1.54l1.26-2.43c-1.87-1.2-4.07-1.8-6.3-1.71-4.18,0-7.81,2.14-7.81,6.01,0,2.86,1.4,4.4,3.97,5.73l2.86,1.47c2.27,1.14,3.34,1.91,3.34,3.44,0,1.71-1.7,2.54-3.67,2.54-1.94-.03-3.81-.75-5.27-2.03l-1.54,2.43c1.94,1.57,4.37,2.4,6.87,2.34,4.77,0,8.01-2.43,8.01-6.41-.1-2.5-1.23-4.47-4.1-5.97h.1Z"/>
  <polygon class="cls-1" points="234.08 37.72 203.36 74.12 185.26 57.23 204.03 89.75 234.08 37.72"/>
  <path class="cls-2" d="m66.93,90.04c-3.74-.05-7.47.19-11.17.71v33.59c3.72.51,7.47.75,11.23.71,16.77,0,22.78-9.05,22.78-17.93,0-10.35-6.83-17.07-22.83-17.07Zm.66,30.99c-1.13,0-2.26-.07-3.39-.22v-26.6c1.1-.16,2.22-.25,3.33-.27,9.09,0,13.36,5.2,13.36,13.36-.05,7.28-4.08,13.73-13.3,13.73Zm59.41-11.16c0,7.16-2.86,10.5-8.5,10.5-6.07,0-8.02-4.71-8.02-11.81v-17.97h-8.5v19.93c0,9.1,4.51,14.8,15.33,14.8s15.64-6.4,15.64-15.72v-19.02h-5.94v19.28Zm40.72-3.44c4.1-1.35,6.24-4.33,6.24-7.63,0-6.56-6.68-8.78-15.99-8.78-3.42-.03-6.84.21-10.22.71v33.59c3.85.47,7.72.71,11.59.71,10.1,0,16.7-3.58,16.7-10.24,0-4.04-2.84-7.23-8.32-8.35Zm-11.59-12.54c.85-.11,1.7-.17,2.56-.16,4.58,0,7.19,2.06,7.19,5.36,0,3.96-2.74,5.91-7.38,5.91h-2.38v-11.11Zm2.38,27.37c-.79-.01-1.59-.07-2.38-.17v-12.35h2.38c5.73,0,9.04,2.06,9.04,5.95,0,4.14-3,6.56-9.04,6.56Zm77.17-30.67v33.86h8.5v-33.86h-8.5Zm-51.66,33.86h6.47l11.92-21.95,11.95,21.95h9.71l-20.04-34.69-20.01,34.69Z"/>
</svg>