<?xml version="1.0" encoding="UTF-8"?>
<svg id="Layer_1" data-name="Layer 1" xmlns="http://www.w3.org/2000/svg" xmlns:xlink="http://www.w3.org/1999/xlink" viewBox="0 0 300 200">
  <defs>
    <style>
      .cls-1 {
        fill: url(#linear-gradient);
      }

      .cls-1, .cls-2, .cls-3, .cls-4 {
        stroke-width: 0px;
      }

      .cls-2 {
        fill: #010101;
      }

      .cls-3 {
        fill: none;
      }

      .cls-5 {
        clip-path: url(#clippath-1);
      }

      .cls-4 {
        fill: url(#linear-gradient-2);
      }

      .cls-6 {
        clip-path: url(#clippath);
      }
    </style>
    <clipPath id="clippath">
      <path class="cls-3" d="m41.94,98.45s1.45,7.7,9.65,18.96c0,0,8.99,12.72.59,22-1.16,1.42-3.57,4.13-3.57,4.13,4.65-2.88,8.81-6.5,12.32-10.7,0,0,8.66-12.36.96-23.56,0,0-8.23-12.16-9.12-17.77,0,0-4.26-18.04,2.54-27.69,0,0-17.54,18.5-13.38,34.62"/>
    </clipPath>
    <linearGradient id="linear-gradient" x1="-809.68" y1="-463.29" x2="-809.68" y2="-463.8" gradientTransform="translate(112191.3 -75990.41) scale(138.5 -164.16)" gradientUnits="userSpaceOnUse">
      <stop offset="0" stop-color="#293068"/>
      <stop offset=".26" stop-color="#293068"/>
      <stop offset=".41" stop-color="#509dce"/>
      <stop offset=".48" stop-color="#53a6dc"/>
      <stop offset=".55" stop-color="#55a3d4"/>
      <stop offset=".74" stop-color="#293068"/>
      <stop offset="1" stop-color="#293068"/>
    </linearGradient>
    <clipPath id="clippath-1">
      <path class="cls-3" d="m63.35,56.26c-23.82,17.18-8.88,34.79-8.85,34.79,11.23,14.07,10.77,22.47,10.77,22.47.5,15.66-16.88,30.23-16.88,30.23,18.2-11.7,24.08-29.17,24.08-29.17,5.48-13.28-3.4-25.67-3.4-25.67-3.02-4.26-5.63-8.79-7.79-13.55-3.96-11.33,2.08-19.1,2.08-19.1Z"/>
    </clipPath>
    <linearGradient id="linear-gradient-2" x1="-809.37" y1="-462.13" x2="-809.37" y2="-462.64" gradientTransform="translate(126148.64 -85231.63) scale(155.79 -184.55)" gradientUnits="userSpaceOnUse">
      <stop offset="0" stop-color="#53a6dc"/>
      <stop offset=".22" stop-color="#53a6dc"/>
      <stop offset=".51" stop-color="#293068"/>
      <stop offset=".75" stop-color="#53a6dc"/>
      <stop offset="1" stop-color="#53a6dc"/>
    </linearGradient>
  </defs>
  <g id="Select-Group-Logo">
    <g id="Logo_Type" data-name="Logo Type">
      <path id="Path_757" data-name="Path 757" class="cls-2" d="m107.16,77.34h-4.36c0-1.59-.26-2.68-.79-3.27-.63-.63-1.72-1.06-3.3-1.26-.92-.1-2.41-.17-4.53-.17-2.11-.04-4.21.03-6.31.2-.93.07-1.85.28-2.71.63-.59.26-1.09.7-1.42,1.26-.36.73-.53,1.53-.5,2.35-.06,1.01.19,2.01.73,2.87.56.79,1.92,1.29,4.1,1.45.59.07,2.58.13,5.98.23,3.6.1,6.08.23,7.43.4,1.17.13,2.32.43,3.4.89.82.36,1.53.95,2.05,1.69.63.86.96,2.25.96,4.13,0,2.71-.66,4.53-2.02,5.48-1.32.99-3.3,1.55-5.91,1.75-1.98.13-4.49.23-7.57.23-3.96,0-6.64-.17-8.06-.43-3.2-.66-5.05-2.25-5.52-4.82-.16-.95-.24-1.91-.23-2.87h4.36v.56c-.03,1,.14,2,.5,2.94.35.69.95,1.23,1.69,1.49,1.09.39,2.24.58,3.4.56,1.42,0,3.07.03,4.99.03,2.03.05,4.06-.04,6.08-.26,1-.07,1.96-.39,2.81-.92.76-.56,1.16-1.95,1.16-4.06.05-.86-.16-1.71-.59-2.44-.56-.76-1.82-1.26-3.77-1.42-.56-.03-2.61-.13-6.21-.26-3.37-.1-5.42-.2-6.14-.26-2.84-.26-4.89-.92-6.24-2.08-1.12-.96-1.69-2.48-1.69-4.49,0-2.87.96-4.79,2.87-5.75,1.49-.73,3.47-1.16,5.95-1.32,1.65-.1,3.54-.13,5.55-.13,4.13,0,6.97.17,8.66.53,2.87.59,4.56,1.95,5.05,4,.11.85.16,1.72.17,2.58"/>
      <path id="Path_758" data-name="Path 758" class="cls-2" d="m115.65,72.91v8.62h19.69v2.41h-19.69v9.48h20.55v2.44h-24.91v-25.41h24.91v2.44h-20.55Z"/>
      <path id="Path_759" data-name="Path 759" class="cls-2" d="m143.99,70.43v22.76h19.95v2.68h-24.32v-25.44h4.36Z"/>
      <path id="Path_760" data-name="Path 760" class="cls-2" d="m171.74,72.91v8.62h19.69v2.41h-19.69v9.48h20.55v2.44h-24.91v-25.41h24.91v2.44h-20.55Z"/>
      <path id="Path_761" data-name="Path 761" class="cls-2" d="m222.69,87.38h4.36v1.26c0,2.21-.36,3.83-1.19,4.82-1.06,1.32-3.11,2.15-6.11,2.44-1.39.13-4.69.23-9.91.23-2.45.05-4.89-.14-7.3-.56-2.94-.59-4.89-1.98-5.85-4.13-.63-1.45-.92-4.16-.92-8.19,0-3.4.03-5.48.13-6.24.13-1.56.84-3.02,1.98-4.1,1.12-.99,2.81-1.72,5.02-2.18,1.88-.4,5.65-.56,11.33-.56,2.23-.06,4.46.07,6.67.4,2.97.63,4.76,2.02,5.32,4.16.23,1.14.35,2.3.36,3.47h-4.36l-.03-.79c.04-.93-.11-1.85-.46-2.71-.29-.62-.79-1.12-1.42-1.39-.99-.46-3.11-.69-6.34-.69-3.63,0-6.44.1-8.39.23-1.04.04-2.06.28-3.01.69-.72.36-1.29.96-1.62,1.69-.4.76-.59,2.02-.59,3.77,0,3.07.07,5.78.17,8.13.13,3.01.96,4.89,2.41,5.62.99.5,2.58.76,4.76.83,1.12.03,2.31.07,3.57.07,3.07,0,5.35-.07,6.9-.23,1.55-.17,2.64-.43,3.2-.79.92-.59,1.35-1.78,1.35-3.63,0-.4,0-.92-.03-1.59"/>
      <path id="Path_762" data-name="Path 762" class="cls-2" d="m246.14,73.14v22.73h-4.36v-22.76h-12.62v-2.64h29.54v2.68h-12.55Z"/>
      <path id="Path_763" data-name="Path 763" class="cls-2" d="m94.01,116.92h16.62c.07.69.13,1.45.13,2.31,0,1.98-.03,3.4-.13,4.26-.07,1.33-.56,2.61-1.42,3.63-.98,1.04-2.26,1.75-3.67,2.02-1.69.46-5.25.69-10.67.69-2.8.05-5.61-.08-8.39-.4-1.61-.19-3.16-.71-4.56-1.52-1.85-1.06-3.03-2.99-3.14-5.12-.1-1.16-.15-2.33-.13-3.5,0-.23,0-1.16-.03-2.81v-1.02c-.04-1.46.05-2.92.26-4.36.56-3.47,2.48-5.62,5.68-6.51,1.79-.42,3.62-.64,5.45-.66,1.32-.07,3.11-.07,5.29-.07,3.14,0,5.35.03,6.64.1,1.12.04,2.24.18,3.34.43,3.27.73,5.05,2.31,5.35,4.72.03.46.03,1.22.03,2.38h-4.29c0-.79-.05-1.57-.17-2.35l-.63-1.32c-.56-.76-1.95-1.19-4.16-1.35-1.42-.1-3.93-.17-7.53-.17-2.34-.06-4.69.08-7,.43-1.75.36-2.87,1.29-3.37,2.84-.26.79-.43,3.17-.46,7.14.03,3.14.07,4.99.13,5.55.1,1.39.43,2.48,1.06,3.2.74.81,1.75,1.32,2.84,1.45,1.62.3,4.76.46,9.42.46,1.98.04,3.95-.06,5.91-.3,1-.08,1.97-.41,2.81-.96.83-.69,1.26-2.41,1.26-5.12,0-.36-.03-.89-.07-1.62h-12.32v-2.48"/>
      <path id="Path_764" data-name="Path 764" class="cls-2" d="m115.71,129.57v-25.44h18.47c3.44,0,6.01.36,7.76,1.12,1.38.52,2.49,1.58,3.07,2.94.4,1.03.58,2.13.53,3.24,0,2.78-.76,4.63-2.28,5.52-.96.56-2.41.92-4.43,1.16v.03c1.57-.02,3.11.43,4.43,1.29.82.56,1.39,1.41,1.59,2.38l.13,1.26v6.51h-4.33v-5.82c0-.71-.1-1.41-.33-2.08-.79-1.69-3.14-2.48-7-2.38h-13.25v10.28h-4.36m4.33-12.75h12.65c2.81,0,4.89-.23,6.14-.76,1.55-.63,2.35-1.85,2.35-3.7.01-.91-.03-1.81-.13-2.71-.23-1.52-1.29-2.48-3.24-2.81-1.19-.18-2.4-.27-3.6-.26h-14.17v10.24Z"/>
      <path id="Path_765" data-name="Path 765" class="cls-2" d="m167.45,103.87c2.71,0,4.76.07,6.24.17,1.31.09,2.6.31,3.87.66,3.17.89,5.09,2.91,5.72,6.08.21,1.55.3,3.12.26,4.69,0,4.03-.1,6.57-.33,7.6-.31,2.86-2.41,5.2-5.22,5.81-2.02.56-4.11.86-6.21.89-1.32.07-2.91.07-4.79.07-3.2,0-5.55-.07-7-.2-1.36-.08-2.7-.34-4-.76-2.54-.79-4.16-2.25-4.82-4.36-.46-1.39-.69-3.4-.73-6.08v-3.54c-.03-1.39.06-2.78.26-4.16.25-1.44.89-2.79,1.85-3.9,1.06-1.05,2.39-1.79,3.83-2.15,1.83-.44,3.7-.69,5.58-.73,1.55-.07,3.34-.1,5.48-.1m-.92,2.48c-2.44,0-4.2.03-5.32.1-.96.06-1.91.2-2.84.43-1.4.32-2.54,1.35-3.01,2.71-.36,1.02-.54,2.09-.53,3.17v4.06c0,3.2.07,5.05.13,5.65.1,1.04.46,2.05,1.06,2.91.59.72,1.41,1.22,2.31,1.42,1.29.31,2.61.48,3.93.5,1.26.03,2.81.07,4.72.07,4.03,0,6.64-.13,7.8-.33.91-.14,1.78-.48,2.54-.99.63-.49,1.11-1.16,1.35-1.92.35-1.03.52-2.12.5-3.2l-.03-4.1c0-3.14-.03-5.05-.13-5.65-.08-1.05-.45-2.05-1.06-2.91-.61-.71-1.43-1.21-2.35-1.42-1.31-.31-2.65-.48-4-.5h-5.09"/>
      <path id="Path_766" data-name="Path 766" class="cls-2" d="m216.15,104.13h4.36v17.81c0,2.15-.36,3.67-1.06,4.63-1.02,1.42-2.94,2.38-5.68,2.84-1.52.26-4.33.4-8.36.4-2.87,0-4.99-.03-6.34-.13-1.19-.04-2.38-.21-3.54-.5-2.25-.53-3.8-1.39-4.66-2.54-.73-.99-1.09-2.54-1.09-4.69v-17.81h4.33v17.81c0,1.88.26,3.14.83,3.73.69.76,1.98,1.26,3.9,1.49,1.92.18,3.85.26,5.78.23,4.16,0,6.97-.17,8.46-.5,1.39-.33,2.28-1.02,2.71-2.21.27-.89.38-1.82.33-2.74v-17.81"/>
      <path id="Path_767" data-name="Path 767" class="cls-2" d="m226.78,129.57v-25.44h16.25c1.82,0,3.11,0,3.9.03,1.54.05,3.07.27,4.56.66,1.04.31,1.97.89,2.71,1.69,1.09,1.19,1.65,3.01,1.65,5.42,0,2.15-.43,3.77-1.29,4.82-1.09,1.35-2.78,2.21-5.12,2.54-.79.13-3.14.2-7.1.23h-11.2v9.98h-4.36m4.36-12.39h10.37c3.44,0,5.75-.13,6.94-.46,1.2-.2,2.23-.98,2.74-2.08.26-.73.38-1.51.33-2.28,0-1.82-.17-3.11-.56-3.87-.43-.89-1.45-1.45-3.01-1.69-.63-.1-2.28-.13-5.02-.17h-11.76v10.54h-.03Z"/>
    </g>
    <g id="Logo_Icon" data-name="Logo Icon">
      <g class="cls-6">
        <g id="Mask_Group_2" data-name="Mask Group 2">
          <rect id="Rectangle_9" data-name="Rectangle 9" class="cls-1" x="18.28" y="61.72" width="70.81" height="83.93" transform="translate(-48.64 47.45) rotate(-33.83)"/>
        </g>
      </g>
      <g class="cls-5">
        <g id="Mask_Group_1" data-name="Mask Group 1">
          <rect id="Rectangle_10" data-name="Rectangle 10" class="cls-4" x="18.91" y="52.82" width="79.65" height="94.36" transform="translate(-44.77 47.7) rotate(-32.76)"/>
        </g>
      </g>
    </g>
  </g>
</svg>