<?xml version="1.0" encoding="UTF-8"?>
<svg id="Layer_1" data-name="Layer 1" xmlns="http://www.w3.org/2000/svg" viewBox="0 0 300 200">
  <defs>
    <style>
      .cls-1 {
        fill: #003767;
      }

      .cls-1, .cls-2 {
        stroke-width: 0px;
      }

      .cls-2 {
        fill: #7ac143;
      }
    </style>
  </defs>
  <path class="cls-2" d="m166.14,44.41c0-4.29,3.51-7.78,7.85-7.78s7.85,3.48,7.85,7.78-3.51,7.78-7.85,7.78-7.85-3.48-7.85-7.78"/>
  <path class="cls-1" d="m141.51,101.43h14.73v-14.59h-14.73v14.59Zm-25.11-14.59h14.73v14.59h-14.73v-14.59Zm50.22-10.27h14.73v-14.59h-14.73v14.59Zm-25.11-14.59h14.73v14.59h-14.73v-14.59Zm-25.11,14.59h14.73v-14.59h-14.73v14.59Zm25.11-39.46h14.73v14.59h-14.73v-14.59Zm-25.11,14.59h14.73v-14.59h-14.73v14.59Zm50.22,35.13h14.73v14.59h-14.73v-14.59Z"/>
  <path class="cls-1" d="m86.24,143.58h9.32c2.81,0,6.96-1.53,6.96-5.87v-12.45l-4.11,1.81v10.91s-.06,2.18-2.89,2.18h-7.43l-1.85,3.43Zm96.3-3.48h3.5v3.43h-3.5v-3.43Zm21.67-2.13h-9.44l.92-3.43h7.82c4.01,0,5.67-.95,5.67-3.92,0-2.5-1.31-3.79-4.11-3.79h-5.23l.92-3.29h4.29c5.37,0,8.36,2.64,8.36,7.14,0,2.68-1.19,4.93-3.27,6.18-1.46.88-3.45,1.12-5.92,1.12m-88.83.41c-2.81,0-7.73-.25-7.73-7.14v-13.65l4.14-1.65v14.62s-.65,4.4,3.14,4.4h68.16c2.83,0,2.89-2.18,2.89-2.18v-5.72l4.11-1.81v7.26c0,4.34-4.14,5.87-6.96,5.87h-67.75Zm61.91,1.71h3.5v3.43h-3.5v-3.43Z"/>
  <path class="cls-1" d="m181.67,152.8l-2.32,4.2h4.56l-2.24-4.2Zm-5.78,10.56h-4.25l8.33-14.59h3.63l8.45,14.59h-4.66l-1.66-3h-8.23l-1.61,3Zm-17.23-10.56l-2.32,4.2h4.56l-2.24-4.2Zm-5.78,10.56h-4.25l8.33-14.59h3.63l8.45,14.59h-4.66l-1.66-3h-8.23l-1.61,3Zm-11.95,0h-4.14v-6.4l-7.77-8.19h5.52l4.55,5.04,4.57-5.04h5.02l-7.75,8.11v6.48Zm-15.19,0h-15.18v-14.59h15.05v3.22h-10.94v2.17h6.38v3.22h-6.38v2.51h11.07v3.46Zm-35.4-11.26v7.8h3.71c4.01,0,5.67-.96,5.67-3.97,0-2.53-1.31-3.83-4.11-3.83h-5.26Zm4.41,11.26h-8.52v-14.59h9.35c5.37,0,8.36,2.67,8.36,7.21,0,2.71-1.19,4.99-3.27,6.25-1.46.89-3.45,1.13-5.92,1.13m105,0h-4.06v-14.59h12.3c2.63,0,4.74,2.11,4.74,4.71s-2.11,4.71-4.74,4.71h-.57l6.38,5.18h-6.04l-5.58-5.18h-2.43v5.18Zm7.5-11.34h-7.5v2.94h7.3c.82-.01,1.48-.67,1.48-1.48,0-.74-.56-1.36-1.28-1.46"/>
</svg>