<?xml version="1.0" encoding="utf-8"?>
<!-- Generator: Adobe Illustrator 26.0.3, SVG Export Plug-In . SVG Version: 6.00 Build 0)  -->
<svg version="1.0" id="katman_1" xmlns="http://www.w3.org/2000/svg" xmlns:xlink="http://www.w3.org/1999/xlink" x="0px" y="0px"
	 viewBox="0 0 600 450" style="enable-background:new 0 0 600 450;" xml:space="preserve">
<style type="text/css">
	.st0{fill:#4F4E50;}
</style>
<path class="st0" d="M344.6,259.3l-37.3-82.9h-4.8l-37.3,85.3c-3.6,6-4.8,8.4-8.4,13.2h12l15.6-36.1H317l15.6,36.1h24
	C350.6,270.1,348.2,267.7,344.6,259.3z M288.1,231.7l12-28.8l13.2,28.8H288.1z"/>
<path class="st0" d="M236.4,177.6h-4.8l-39.7,76.9l-40.9-76.9h-6l-10.8,82.9c-1.2,8.4-1.2,10.8-3.6,15.6h12
	c-1.2-3.6-1.2-10.8,0-16.8l7.2-50.5l34.9,66.1h6l33.7-63.7l6,46.9c1.2,5.5,1.2,11.3,0,16.8l21.6,1.2c-2.4-4.8-3.6-7.2-4.8-15.6
	L236.4,177.6z"/>
<path class="st0" d="M112.6,266.5H73v-38.5H115l2.4-7.2H73v-38.5h34.9c3.3,0.1,6.6,0.9,9.6,2.4c1.2,0,2.4,1.2,3.6,1.2v-9.6H53.7
	c2.4,7.2,2.4,10.8,2.4,15.6v67.3c0,4.8,0,8.4-2.4,15.6h70.9l1.2-9.6C125.8,264.1,118.6,267.7,112.6,266.5z"/>
<path class="st0" d="M446.8,259.3l-37.3-82.9h-4.8l-37.3,85.3c-3.6,6-4.8,8.4-8.4,13.2h12l15.6-36.1h32.5l15.6,36h24
	C452.8,270.1,450.4,267.7,446.8,259.3z M389.1,231.7l13.2-28.8l13.2,28.8H389.1z"/>
<path class="st0" d="M499.7,229.3h3.6c13.2-2.4,25.2-10.8,25.2-25.2c0-28.8-33.6-27.6-48.1-27.6H460c2.4,7.2,2.4,10.8,2.4,15.6v67.3
	c0,4.8,0,8.4-2.4,15.6h21.6c-2.4-7.2-2.4-10.8-2.4-15.6v-30c2.4,0,4.8,1.2,9.6,6c11.6,14.3,24.5,27.6,38.5,39.7h19.2
	C544.1,273.7,499.7,229.3,499.7,229.3z M480.4,224.5v-42.1c30-1.2,33.7,14.4,33.7,21.6s-2.4,15.7-12,19.3
	C496,225.7,479.2,224.5,480.4,224.5z"/>
</svg>
