<?xml version="1.0" encoding="UTF-8"?>
<svg id="Layer_1" data-name="Layer 1" xmlns="http://www.w3.org/2000/svg" viewBox="0 0 300 200">
  <defs>
    <style>
      .cls-1 {
        fill: #010101;
        stroke-width: 0px;
      }
    </style>
  </defs>
  <path class="cls-1" d="m48.96,72.22c12.41-.04,24.82,0,37.24-.02-.01,1.74,0,3.47,0,5.21-12.41-.01-24.82.03-37.24-.02.02-1.73.02-3.45,0-5.17Z"/>
  <path class="cls-1" d="m39.88,81.34c1.71.01,3.42.02,5.14-.01.04,12.45.02,24.91,0,37.36-1.72-.02-3.44-.02-5.15,0,.01-12.45-.01-24.9.01-37.35Z"/>
  <path class="cls-1" d="m90.14,81.44c1.73-.03,3.45-.12,5.18-.09.03,12.45.02,24.9,0,37.34-1.73,0-3.46-.01-5.19,0,.04-12.41.03-24.83,0-37.24Z"/>
  <path class="cls-1" d="m246.85,86.96c3.29-.36,6.84-.15,9.71,1.66,1.53.95,2.55,2.52,3.14,4.19-1.5.63-3,1.29-4.48,1.98-.75-1.73-2.22-3.28-4.16-3.53-1.88-.22-3.95-.31-5.66.64-1.7.86-1.47,3.72.25,4.42,4.12,1.61,9.25.91,12.65,4.18,2.24,2.13,2.31,5.81.82,8.38-1.32,2.34-3.92,3.62-6.47,4.11-2.01.31-4.05.3-6.06.07-3.25-.4-6.38-2.08-8.28-4.77,1.26-1.11,2.5-2.24,3.66-3.44,1.59,2.35,4.28,3.91,7.14,3.96,1.76.05,3.97.02,5.05-1.63.85-1.13.55-2.81-.51-3.69-1.04-.74-2.32-.97-3.55-1.19-2.86-.52-5.89-.85-8.42-2.41-3.06-1.79-3.54-6.23-1.75-9.07,1.47-2.36,4.25-3.52,6.91-3.87Z"/>
  <path class="cls-1" d="m52.36,87.41c1.72-.03,3.44,0,5.15-.02-.02,8.42-.02,16.83,0,25.25-1.72-.03-3.44-.01-5.15-.03.06-8.4.05-16.8,0-25.2Z"/>
  <path class="cls-1" d="m65.01,87.39c1.74.02,3.48.01,5.22,0-.02,8.41-.03,16.82,0,25.22-1.74,0-3.48-.01-5.22.01.01-8.41.01-16.82,0-25.24Z"/>
  <path class="cls-1" d="m77.73,87.39c1.71.02,3.43.01,5.14,0,0,8.42,0,16.83,0,25.24-1.72-.03-3.44-.03-5.16-.01.04-8.41,0-16.82.01-25.24Z"/>
  <path class="cls-1" d="m106.74,87.4c2.08-.03,4.15.04,6.23-.03,2.4,6.33,4.79,12.68,7.01,19.07,2.52-6.31,4.74-12.75,7.25-19.07,2.03.05,4.06.04,6.09.02-.02,8.41-.03,16.82,0,25.23-1.63-.02-3.25-.03-4.87,0,.17-5.73.04-11.47.08-17.21-2.21,5.71-4.29,11.48-6.47,17.21-1.38-.03-2.75-.03-4.13,0-2.13-5.72-4.43-11.38-6.38-17.16-.17,5.71-.04,11.44-.06,17.16-1.6-.02-3.19,0-4.78-.02.05-8.4.02-16.8.01-25.2Z"/>
  <path class="cls-1" d="m138.26,87.41c6.09-.01,12.18,0,18.27,0-.03,1.5-.03,3.01,0,4.52-4.35.01-8.71,0-13.06.01.01,1.82.02,3.64,0,5.46,4.05.03,8.1.02,12.15,0,.03,1.51.02,3.03.02,4.54-4.06-.01-8.12-.03-12.17,0,.04,2.06.01,4.11,0,6.17,4.43.04,8.86.04,13.29,0-.02,1.5-.01,3.01-.01,4.52-6.16-.05-12.33.01-18.49-.03.05-8.39.03-16.79.01-25.19Z"/>
  <path class="cls-1" d="m161.5,87.39c3.45.04,6.89-.01,10.35.03,2.49.13,5.16.57,7.13,2.23,2.35,2,2.7,5.51,1.86,8.32-.49,1.85-2.02,3.19-3.66,4.05,1.81,3.53,3.62,7.07,5.41,10.61-1.93-.02-3.85-.02-5.77,0-1.63-3.15-3.06-6.42-4.82-9.5-1.78.08-3.55.03-5.33.04,0,3.15-.04,6.3.02,9.45-1.74.02-3.47-.01-5.21.03.03-8.41,0-16.83.01-25.24Zm5.17,4.34c-.03,2.35,0,4.71-.03,7.06,2.38-.13,4.85.31,7.17-.33,2.8-.72,2.88-5.5.08-6.27-2.33-.68-4.83-.37-7.23-.46Z"/>
  <path class="cls-1" d="m184.48,112.61c3.38-8.39,6.65-16.83,10.03-25.22,1.75.03,3.5.04,5.24,0,3.37,8.4,6.63,16.85,10.03,25.24-1.89,0-3.77,0-5.65-.01-.69-1.92-1.42-3.83-2.12-5.75-3.33,0-6.65,0-9.98,0-.71,1.93-1.4,3.86-2.13,5.77-1.81-.03-3.63.01-5.43-.01Zm9.12-10.06c2.29-.07,4.58-.07,6.87,0-1.11-3.15-2.28-6.29-3.51-9.4-1,3.18-2.31,6.24-3.35,9.41Z"/>
  <path class="cls-1" d="m221.58,87.4c1.77,0,3.54.01,5.31,0,3.34,8.41,6.63,16.83,10.01,25.22-1.88-.02-3.77-.02-5.65-.01-.67-1.93-1.43-3.83-2.1-5.76-3.33-.01-6.66,0-9.99,0-.75,1.9-1.4,3.85-2.14,5.76-1.81-.02-3.62-.02-5.43.01,3.36-8.4,6.67-16.82,9.99-25.23Zm-.9,15.07c2.31.09,4.61-.11,6.92.08-1.12-3.19-2.36-6.33-3.52-9.5-1.01,3.18-2.24,6.29-3.4,9.42Z"/>
  <path class="cls-1" d="m48.96,122.65c12.41-.04,24.82,0,37.24-.02.02,1.73-.02,3.45.01,5.17-12.42-.01-24.83.02-37.25-.01.02-1.71.02-3.42,0-5.13Z"/>
</svg>